<?xml version="1.0" encoding="utf-8"?><!DOCTYPE svg PUBLIC "-//W3C//DTD SVG 1.1//EN" "http://www.w3.org/Graphics/SVG/1.1/DTD/svg11.dtd"><svg xmlns="http://www.w3.org/2000/svg" xml:space="preserve" width="100" height="82.382" viewBox="0 8.808 100 82.382"><path d="M92.165 46.646c-2.394-2.395-5.184-4.274-8.291-5.59-3.223-1.362-6.64-2.053-10.161-2.053H26.095c-3.52 0-6.938.69-10.159 2.053-3.108 1.315-5.898 3.195-8.292 5.59-2.395 2.394-4.274 5.184-5.59 8.292C.692 58.159 0 61.578 0 65.096c0 3.522.69 6.938 2.054 10.159 1.315 3.108 3.195 5.896 5.59 8.293 2.394 2.394 5.184 4.273 8.292 5.588 3.222 1.361 6.639 2.055 10.159 2.055 4.114 0 8.214-.983 11.858-2.847 2.447-1.25 4.7-2.9 6.645-4.854h10.61c1.946 1.954 4.2 3.604 6.646 4.854 3.645 1.863 7.745 2.847 11.857 2.847 3.521 0 6.938-.692 10.16-2.055 3.107-1.314 5.896-3.194 8.29-5.588 2.395-2.396 4.276-5.185 5.59-8.293 1.362-3.221 2.053-6.638 2.053-10.159 0-3.52-.689-6.937-2.053-10.158-1.311-3.107-3.191-5.897-5.586-8.292zM73.713 84.348c-6.296 0-11.888-3.025-15.4-7.701H41.495c-3.512 4.676-9.103 7.701-15.4 7.701-10.631 0-19.249-8.617-19.249-19.25 0-10.631 8.619-19.25 19.249-19.25h47.618c10.633 0 19.252 8.619 19.252 19.25-.002 10.632-8.619 19.25-19.252 19.25z"/><circle cx="73.713" cy="72.797" r="3.849"/><circle cx="81.414" cy="65.097" r="3.85"/><circle cx="66.015" cy="65.097" r="3.85"/><circle cx="73.713" cy="57.398" r="3.849"/><path d="M35.72 61.247h-5.775v-5.773c0-1.062-.862-1.925-1.924-1.925h-3.85c-1.063 0-1.925.862-1.925 1.925v5.773h-5.774c-1.063 0-1.924.862-1.924 1.926v3.85c0 1.063.862 1.926 1.924 1.926h5.774v5.773c0 1.064.862 1.925 1.925 1.925h3.85c1.063 0 1.924-.86 1.924-1.925v-5.773h5.775c1.063 0 1.925-.862 1.925-1.926v-3.85c0-1.064-.863-1.926-1.925-1.926zm28.332-34.87h18.379c9.687 0 17.569-7.881 17.569-17.569h-6.845c0 5.914-4.812 10.725-10.725 10.725H64.052c-9.688 0-17.569 7.881-17.569 17.569h6.844c-.001-5.913 4.812-10.725 10.725-10.725z"/></svg>